<svg viewBox="0 0 1000 500" xmlns="http://www.w3.org/2000/svg">
  <rect width="1000" height="500" fill="#F4F1E9"/>
  <path transform="translate(180.5,232)" d="M15.559414920368816 0.0V-103.6H56.0098742665549Q69.48779882648785 -103.6 79.15224224643755 -99.28002514668901Q88.81668566638726 -94.96005029337803 94.01315423302599 -86.84960687342833Q99.20962279966471 -78.73916345347862 99.20962279966471 -67.43521374685666Q99.20962279966471 -56.2792640402347 94.01315423302599 -48.15731433361274Q88.81668566638726 -40.03536462699078 79.15224224643755 -35.715389773679796Q69.48779882648785 -31.395414920368815 56.0098742665549 -31.395414920368815H23.686761106454316L30.268233025984912 -38.35184911986588V0.0ZM30.268233025984912 -36.898025146689015 23.686761106454316 -44.20640905280804H55.55594970662196Q69.76035205364626 -44.20640905280804 77.06808466051969 -50.295622799664706Q84.37581726739312 -56.38483654652137 84.37581726739312 -67.43521374685666Q84.37581726739312 -78.63359094719195 77.06808466051969 -84.71129840737635Q69.76035205364626 -90.78900586756076 55.55594970662196 -90.78900586756076H23.686761106454316L30.268233025984912 -98.0973897736798Z M199.362025146689 1.1939245599329422Q178.86222632020116 1.1939245599329422 167.194820620285 -10.508Q155.5274149203688 -22.20992455993294 155.5274149203688 -44.73886169321039V-103.6H170.23623302598492V-45.26182397317687Q170.23623302598492 -28.041471919530597 177.86794048616932 -20.01675188600168Q185.49964794635372 -11.992031852472756 199.4870125733445 -11.992031852472756Q213.47437720033528 -11.992031852472756 221.10608466051968 -20.01675188600168Q228.7377921207041 -28.041471919530597 228.7377921207041 -45.26182397317687V-103.6H243.1966353730092V-44.73886169321039Q243.1966353730092 -22.20992455993294 231.52922967309303 -10.508Q219.86182397317685 1.1939245599329422 199.362025146689 1.1939245599329422Z M307.4834149203688 0.0V-103.6H322.1922330259849V-12.810994132439228H378.4087862531433V0.0Z M459.5779245599329 1.1939245599329422Q447.70498742665546 1.1939245599329422 436.9025691533948 -2.4501257334450965Q426.1001508801341 -6.094176026823135 419.92025146689014 -11.833238893545683L425.3669119865884 -23.381270746018437Q431.2508113998323 -18.23420787929589 440.43831768650455 -14.800651299245597Q449.6258239731768 -11.367094719195306 459.55491198658837 -11.367094719195306Q468.55313830678955 -11.367094719195306 474.1687954735959 -13.475195305951381Q479.78445264040226 -15.583295892707458 482.4500343671416 -19.212459346186083Q485.11561609388093 -22.84162279966471 485.11561609388093 -27.330811399832353Q485.11561609388093 -32.73101257334451 481.6886035205364 -35.995138306789606Q478.2615909471919 -39.259264040234704 472.7165532271584 -41.224326906957245Q467.17151550712487 -43.18938977367979 460.46549036043587 -44.70390863369656Q453.7594652137468 -46.21842749371333 447.04193378038553 -48.181908633696565Q440.32440234702426 -50.145389773679796 434.77936462699074 -53.28136462699078Q429.2343269069572 -56.417339480301756 425.8073143336127 -61.63682062028499Q422.3803017602682 -66.85630176026824 422.3803017602682 -75.12128918692372Q422.3803017602682 -83.17916345347862 426.6312388935456 -89.91158172673931Q430.8821760268231 -96.64399999999999 439.69155658005025 -100.71896227996646Q448.5009371332774 -104.79392455993293 462.13678625314327 -104.79392455993293Q471.1747108130762 -104.79392455993293 480.0531290863369 -102.39140569991616Q488.93154735959763 -99.9888868398994 495.430459346186 -95.57189941324391L490.55278625314327 -83.82984241408214Q483.83683654652134 -88.16786756077116 476.4138239731768 -90.20038642078792Q468.9908113998323 -92.23290528080469 462.03481139983234 -92.23290528080469Q453.35559765297563 -92.23290528080469 447.7514467728415 -89.98831098072087Q442.1472958927074 -87.74371668063705 439.5557141659681 -84.05205951383067Q436.96413243922876 -80.3604023470243 436.96413243922876 -75.72321374685666Q436.96413243922876 -70.3 440.39114501257325 -67.0358742665549Q443.8181575859178 -63.7717485331098 449.3631953059513 -61.869179379715Q454.9082330259849 -59.9666102263202 461.62576445934616 -58.38959765297569Q468.34329589270743 -56.81258507963118 475.04932103939643 -54.900091366303435Q481.75534618608543 -52.987597652975694 487.300383906119 -49.91411651299245Q492.84542162615253 -46.84063537300921 496.272434199497 -41.64416680637049Q499.6994467728415 -36.447698239731764 499.6994467728415 -28.330710813076276Q499.6994467728415 -20.397823973176866 495.37450963956405 -13.665405699916178Q491.0495725062866 -6.93298742665549 482.143179379715 -2.8695314333612743Q473.2367862531433 1.1939245599329422 459.5779245599329 1.1939245599329422Z M555.3034149203687 0.0V-103.6H628.4257736797988V-90.78900586756076H570.0122330259849V-12.810994132439228H630.5207862531432V0.0ZM568.7722833193628 -46.333490360435874V-58.89450963956412H622.0157485331097V-46.333490360435874Z" fill="#1B1D21"/>
  <!-- pulse line: ink flats, gold beat -->
  <path d="M 186 322 H 475" fill="none" stroke="#1B1D21" stroke-width="4.5" stroke-linecap="round"/>
  <path d="M 475 322 l 14 -30 l 22 56 l 14 -26" fill="none" stroke="#B8945A" stroke-width="4.5"
        stroke-linecap="round" stroke-linejoin="round"/>
  <path d="M 525 322 H 814" fill="none" stroke="#1B1D21" stroke-width="4.5" stroke-linecap="round"/>
  <path transform="translate(346.6,418)" d="M2.5231483654652136 0.0V-16.8H9.08268231349539Q11.268291701592624 -16.8 12.83549874266555 -16.09946353730092Q14.402705783738476 -15.398927074601843 15.245376362112323 -14.08372003352892Q16.08804694048617 -12.768512992455994 16.08804694048617 -10.935440067057838Q16.08804694048617 -9.126367141659681 15.245376362112323 -7.8092942162615255Q14.402705783738476 -6.4922212908633705 12.83549874266555 -5.791684828164293Q11.268291701592624 -5.091148365465214 9.08268231349539 -5.091148365465214H3.8410963956412405L4.9083621123218775 -6.2192187761944675V0.0ZM4.9083621123218775 -5.983463537300922 3.8410963956412405 -7.168606873428332H9.009072925398156Q11.312489522212909 -7.168606873428332 12.497527242246438 -8.156046940486169Q13.682564962279967 -9.143487007544007 13.682564962279967 -10.935440067057838Q13.682564962279967 -12.751393126571669 12.497527242246438 -13.736967309304276Q11.312489522212909 -14.722541492036882 9.009072925398156 -14.722541492036882H3.8410963956412405Z M36.851148365465214 0.0V-16.8H39.23636211232188V0.0Z M68.8 0.19360938809723388Q66.89119530595138 0.19360938809723388 65.26852472757753 -0.4423906119027662Q63.645854149203686 -1.0783906119027662 62.45145180217938 -2.2405247275775357Q61.25704945515507 -3.402658843252305 60.58878122380553 -4.969061190276613Q59.920512992456 -6.535463537300921 59.920512992456 -8.4Q59.920512992456 -10.264536462699079 60.58878122380553 -11.830938809723387Q61.25704945515507 -13.397341156747695 62.46158591785415 -14.559475272422464Q63.666122380553226 -15.721609388097233 65.28879295892708 -16.357609388097234Q66.91146353730092 -16.993609388097234 68.82026823134954 -16.993609388097234Q70.76002347024308 -16.993609388097234 72.4101693210394 -16.33386588432523Q74.06031517183571 -15.674122380553227 75.20111986588432 -14.3711718357083L73.65648952221291 -12.859614417435038Q72.68690360435876 -13.882541492036882 71.49118357082983 -14.36894383906119Q70.29546353730092 -14.855346186085498 68.92160938809724 -14.855346186085498Q67.49763285834032 -14.855346186085498 66.29338809723387 -14.375089689857502Q65.0891433361274 -13.894833193629506 64.19795976529757 -13.025783738474434Q63.30677619446773 -12.156734283319363 62.81638558256496 -10.978355406538139Q62.325994970662194 -9.799976529756915 62.325994970662194 -8.4Q62.325994970662194 -7.000023470243085 62.81638558256496 -5.821644593461861Q63.30677619446773 -4.643265716680637 64.19795976529757 -3.7742162615255657Q65.0891433361274 -2.9051668063704947 66.29338809723387 -2.424910310142498Q67.49763285834032 -1.9446538139145013 68.92160938809724 -1.9446538139145013Q70.29546353730092 -1.9446538139145013 71.49118357082983 -2.43292204526404Q72.68690360435876 -2.9211902766135793 73.65648952221291 -3.9643855825649625L75.20111986588432 -2.4528281642917014Q74.06031517183571 -1.1498776194467728 72.4101693210394 -0.4781341156747695Q70.76002347024308 0.19360938809723388 68.8 0.19360938809723388Z M97.50994803017602 -4.063976529756916 97.38833864207879 -6.982018440905281 106.91458843252305 -16.8H109.65021626152556L102.27636211232188 -9.027731768650462L100.93441408214585 -7.547637887678122ZM95.40314836546521 0.0V-16.8H97.78836211232188V0.0ZM107.30444258172673 0.0 100.42719530595139 -8.014320201173513 102.02355741827326 -9.78563285834032 110.1211433361274 0.0Z M129.6591483654652 0.0V-16.8H132.04436211232186V-2.0774585079631183H141.16055993294216V0.0Z M160.9151483654652 0.0V-16.8H172.7728281642917V-14.722541492036882H163.30036211232186V-2.0774585079631183H173.11255993294216V0.0ZM163.09928918692373 -7.51353897736798V-9.550461022632021H171.73336462699078V-7.51353897736798Z M193.99514836546518 0.0V-16.8H201.53495054484492Q204.430974015088 -16.8 205.9955104777871 -15.640792958927076Q207.56004694048616 -14.48158591785415 207.56004694048616 -12.450658843252306Q207.56004694048616 -11.099195305951383 206.93871751886002 -10.154927074601844Q206.31738809723385 -9.210658843252306 205.28966806370494 -8.714122380553228Q204.261948030176 -8.21758591785415 203.0667761944677 -8.21758591785415L203.49504442581724 -8.934950544844929Q204.93233864207878 -8.934950544844929 206.0440586756077 -8.43281642917016Q207.1557787091366 -7.9306823134953905 207.79364459346183 -6.950414082145851Q208.43151047778707 -5.970145850796312 208.43151047778707 -4.533877619446773Q208.43151047778707 -2.3813411567476948 206.8200352053646 -1.1906705783738474Q205.20855993294214 0.0 202.0149505448449 0.0ZM196.38036211232185 -1.9558491198658845H201.90826823134952Q203.9071483654652 -1.9558491198658845 204.96658843252303 -2.620093880972339Q206.02602849958086 -3.2843386420787932 206.02602849958086 -4.736559932942162Q206.02602849958086 -6.188781223805533 204.96658843252303 -6.861294216261526Q203.9071483654652 -7.533807208717519 201.90826823134952 -7.533807208717519H196.1792891869237V-9.489656328583404H201.30665884325228Q203.1391483654652 -9.489656328583404 204.14685666387257 -10.155766974015087Q205.15456496227995 -10.821877619446772 205.15456496227995 -12.16690360435876Q205.15456496227995 -13.511929589270746 204.14685666387257 -14.178040234702433Q203.1391483654652 -14.844150880134118 201.30665884325228 -14.844150880134118H196.38036211232185Z M226.6127812238055 0.0 234.23036714165966 -16.8H236.5953126571668L244.2331668063705 0.0H241.7151483654652L234.91787761944676 -15.463393126571669H235.88753394803015L229.09026320201173 0.0ZM229.8496328583403 -4.1924660519698245 230.51526571668063 -6.128046940486169H239.9621223805532L240.64802347024306 -4.1924660519698245Z M263.7311483654652 0.0V-16.8H266.11636211232184V-2.0774585079631183H275.23255993294214V0.0Z M294.98714836546515 0.0V-16.8H297.3723621123218V-2.0774585079631183H306.4885599329421V0.0Z" fill="#8A8C8B"/>
</svg>
